<svg width="32" height="32" viewBox="0 0 32 32" fill="none" xmlns="http://www.w3.org/2000/svg">
<path d="M19.974 9.354C19.974 9.354 20.6407 10.0207 21.3073 11.354C21.3073 11.354 23.4249 8.02067 25.3073 7.354" stroke="#713394" stroke-width="2" stroke-linecap="round" stroke-linejoin="round"/>
<path d="M13.3265 2.69521C9.99518 2.55416 7.4215 2.93792 7.4215 2.93792C5.79637 3.05412 2.68195 3.96521 2.68198 9.28613C2.68201 14.5619 2.64753 21.0657 2.68198 23.6587C2.68198 25.2427 3.66281 28.9379 7.05769 29.1359C11.1841 29.3765 18.6169 29.4277 22.0273 29.1359C22.9401 29.0844 25.9795 28.3677 26.3641 25.0609C26.7627 21.6352 26.6833 19.2543 26.6833 18.6876" stroke="#713394" stroke-width="2" stroke-linecap="round" stroke-linejoin="round"/>
<path d="M29.3332 9.35417C29.3332 13.0361 26.3455 16.0208 22.66 16.0208C18.9747 16.0208 15.9869 13.0361 15.9869 9.35417C15.9869 5.67227 18.9747 2.6875 22.66 2.6875C26.3455 2.6875 29.3332 5.67227 29.3332 9.35417Z" stroke="#713394" stroke-width="2" stroke-linecap="round"/>
<path d="M9.3073 17.354H14.6407" stroke="#713394" stroke-width="2" stroke-linecap="round"/>
<path d="M9.3073 22.6875H19.974" stroke="#713394" stroke-width="2" stroke-linecap="round"/>
</svg>
