<svg width="32" height="32" viewBox="0 0 32 32" fill="none" xmlns="http://www.w3.org/2000/svg">
<g clip-path="url(#clip0_7_826)">
<rect width="32" height="32" rx="16" fill="white"/>
<path d="M24.4601 10.6955C23.8234 10.9771 23.1482 11.1621 22.4569 11.2443C23.1856 10.8085 23.731 10.1226 23.9914 9.31443C23.3075 9.72142 22.5578 10.0066 21.7763 10.1609C21.2514 9.59931 20.5557 9.22683 19.7972 9.10142C19.0388 8.97601 18.2602 9.10468 17.5824 9.46743C16.9047 9.83018 16.3657 10.4067 16.0494 11.1073C15.7331 11.808 15.6572 12.5935 15.8333 13.3418C14.4465 13.2722 13.0898 12.9119 11.8513 12.284C10.6128 11.6561 9.52016 10.7748 8.64437 9.69723C8.33436 10.2297 8.17146 10.835 8.17233 11.4511C8.17233 12.6604 8.78781 13.7287 9.72355 14.3542C9.16979 14.3368 8.62821 14.1872 8.14397 13.918V13.9614C8.14414 14.7668 8.42283 15.5473 8.9328 16.1707C9.44276 16.7941 10.1526 17.2219 10.942 17.3816C10.4279 17.5209 9.88893 17.5414 9.36576 17.4416C9.58833 18.1349 10.0221 18.7412 10.6064 19.1756C11.1907 19.61 11.8962 19.8509 12.6242 19.8644C11.9007 20.4326 11.0723 20.8526 10.1863 21.1005C9.30037 21.3483 8.37426 21.4191 7.46094 21.3088C9.05527 22.3342 10.9112 22.8785 12.8068 22.8767C19.2227 22.8767 22.7312 17.5617 22.7312 12.9523C22.7312 12.8022 22.7271 12.6504 22.7204 12.5019C23.4033 12.0084 23.9927 11.3969 24.4609 10.6963L24.4601 10.6955Z" fill="black"/>
</g>
<defs>
<clipPath id="clip0_7_826">
<rect width="32" height="32" rx="16" fill="white"/>
</clipPath>
</defs>
</svg>
