<svg width="32" height="32" viewBox="0 0 32 32" fill="none" xmlns="http://www.w3.org/2000/svg">
<g clip-path="url(#clip0_7_830)">
<rect width="32" height="32" rx="16" fill="white"/>
<path d="M12.2749 10.4927C12.2747 10.9102 12.1087 11.3104 11.8133 11.6055C11.518 11.9005 11.1176 12.0661 10.7001 12.0659C10.2827 12.0657 9.88243 11.8997 9.5874 11.6044C9.29237 11.309 9.12674 10.9086 9.12695 10.4912C9.12716 10.0737 9.29319 9.67345 9.58852 9.37842C9.88384 9.08339 10.2843 8.91776 10.7017 8.91797C11.1192 8.91818 11.5194 9.08421 11.8145 9.37953C12.1095 9.67486 12.2751 10.0753 12.2749 10.4927ZM12.3221 13.2315H9.17417V23.0845H12.3221V13.2315ZM17.2959 13.2315H14.1637V23.0845H17.2644V17.914C17.2644 15.0337 21.0183 14.7661 21.0183 17.914V23.0845H24.127V16.8437C24.127 11.988 18.5708 12.169 17.2644 14.5536L17.2959 13.2315Z" fill="black"/>
</g>
<defs>
<clipPath id="clip0_7_830">
<rect width="32" height="32" rx="16" fill="white"/>
</clipPath>
</defs>
</svg>
