<svg width="32" height="32" viewBox="0 0 32 32" fill="none" xmlns="http://www.w3.org/2000/svg">
<path d="M27.9997 21.3335H6.52151C5.87141 21.3335 5.38974 21.5632 5.0101 21.9355C4.38551 22.5479 4.16111 23.4536 4.0621 24.324C3.94754 25.3311 3.9889 26.2516 4.26998 27.2504C4.5835 28.3647 5.36199 29.3335 6.51557 29.3335H27.9997M25.8748 29.3335C23.8232 27.4515 22.9805 24.1896 25.8748 21.3335" stroke="#713394" stroke-width="2" stroke-linecap="round" stroke-linejoin="round"/>
<path d="M15.7568 8.6665C15.7568 5.33317 12.1457 3.99984 12.1457 3.99984M15.7568 9.22825C15.7568 9.22825 7.8125 5.14086 7.8125 11.8774C7.8125 18.614 11.4272 21.3332 12.8679 21.3332C14.0171 21.3332 14.6949 19.9882 15.7568 19.9882C16.8185 19.9882 17.2011 21.3332 18.6455 21.3332C20.0863 21.3332 23.7009 18.614 23.7009 11.8774C23.7009 5.14088 15.7568 9.22825 15.7568 9.22825ZM16.4791 7.99984C16.4791 2.6803 19.0804 3.99984 20.3811 2.6665C21.6819 5.99984 19.9408 6.66996 16.4791 7.99984Z" stroke="#713394" stroke-width="2" stroke-linecap="round" stroke-linejoin="round"/>
</svg>
