<svg width="32" height="32" viewBox="0 0 32 32" fill="none" xmlns="http://www.w3.org/2000/svg">
<path d="M16 29.3335L13.3333 21.3335H2.66666L5.33333 29.3335H16ZM16 29.3335H21.3333" stroke="#713394" stroke-width="2" stroke-linecap="round" stroke-linejoin="round"/>
<path d="M16 17.3335V16.6668C16 14.1527 16 12.8956 15.2189 12.1145C14.4379 11.3335 13.1808 11.3335 10.6667 11.3335C8.1525 11.3335 6.89542 11.3335 6.11438 12.1145C5.33333 12.8956 5.33333 14.1527 5.33333 16.6668V17.3335" stroke="#713394" stroke-width="2" stroke-linecap="round" stroke-linejoin="round"/>
<path d="M25.3333 17.3332C25.3333 18.806 24.1395 19.9998 22.6667 19.9998C21.1939 19.9998 20 18.806 20 17.3332C20 15.8604 21.1939 14.6665 22.6667 14.6665C24.1395 14.6665 25.3333 15.8604 25.3333 17.3332Z" stroke="#713394" stroke-width="2"/>
<path d="M13.3333 5.33317C13.3333 6.80593 12.1394 7.99984 10.6667 7.99984C9.19391 7.99984 8 6.80593 8 5.33317C8 3.86041 9.19391 2.6665 10.6667 2.6665C12.1394 2.6665 13.3333 3.86041 13.3333 5.33317Z" stroke="#713394" stroke-width="2"/>
<path d="M18.6667 23.3335H26.6667C28.1395 23.3335 29.3333 24.5274 29.3333 26.0002V26.6668C29.3333 28.1396 28.1395 29.3335 26.6667 29.3335H25.3333" stroke="#713394" stroke-width="2" stroke-linecap="round"/>
</svg>
