<svg width="32" height="32" viewBox="0 0 32 32" fill="none" xmlns="http://www.w3.org/2000/svg">
<path d="M15.3333 29.3332C9.99075 29.3332 7.31945 29.3332 5.65973 27.3805C4 25.428 4 22.2852 4 15.9998C4 9.71445 4 6.57174 5.65973 4.61913C7.31945 2.6665 9.99075 2.6665 15.3333 2.6665C20.6759 2.6665 23.3472 2.6665 25.0069 4.61913C26.3429 6.19093 26.6036 8.53389 26.6544 12.6665" stroke="#713394" stroke-width="2" stroke-linecap="round" stroke-linejoin="round"/>
<path d="M10.6667 10.6665H20M10.6667 17.3332H14.6667" stroke="#713394" stroke-width="2" stroke-linecap="round" stroke-linejoin="round"/>
<path d="M26.1456 24.1405C27.2695 23.3224 28 21.9965 28 20.5C28 18.0147 25.9853 16 23.5 16H23.1667C20.6813 16 18.6667 18.0147 18.6667 20.5C18.6667 21.9965 19.3972 23.3224 20.5211 24.1405M26.1456 24.1405C25.4031 24.6811 24.4888 25 23.5 25H23.1667C22.1779 25 21.2636 24.6811 20.5211 24.1405M26.1456 24.1405L26.9227 26.5872C27.2191 27.5204 27.3673 27.9871 27.3268 28.2776C27.2424 28.8823 26.7492 29.3312 26.1669 29.3333C25.8872 29.3344 25.468 29.1144 24.6297 28.6745C24.2703 28.4859 24.0905 28.3915 23.9067 28.336C23.532 28.2231 23.1347 28.2231 22.76 28.336C22.5761 28.3915 22.3964 28.4859 22.0369 28.6745C21.1987 29.1144 20.7795 29.3344 20.4997 29.3333C19.9175 29.3312 19.4243 28.8823 19.3399 28.2776C19.2993 27.9871 19.4476 27.5204 19.744 26.5872L20.5211 24.1405" stroke="#713394" stroke-width="2"/>
</svg>
