<svg width="32" height="33" viewBox="0 0 32 33" fill="none" xmlns="http://www.w3.org/2000/svg">
<path d="M2.66667 9.83333C2.66667 7.96649 2.66667 7.03307 3.02998 6.32003C3.34957 5.69283 3.8595 5.18289 4.4867 4.86331C5.19974 4.5 6.13317 4.5 8.00001 4.5C9.86685 4.5 10.8003 4.5 11.5133 4.86331C12.1405 5.18289 12.6504 5.69283 12.97 6.32003C13.3333 7.03307 13.3333 7.96649 13.3333 9.83333V23.1667C13.3333 25.0335 13.3333 25.9669 12.97 26.68C12.6504 27.3072 12.1405 27.8171 11.5133 28.1367C10.8003 28.5 9.86685 28.5 8.00001 28.5C6.13317 28.5 5.19974 28.5 4.4867 28.1367C3.8595 27.8171 3.34957 27.3072 3.02998 26.68C2.66667 25.9669 2.66667 25.0335 2.66667 23.1667V9.83333Z" stroke="#713394" stroke-width="2" stroke-linecap="round" stroke-linejoin="round"/>
<path d="M8 23.1665H8.01197" stroke="#713394" stroke-width="2.66667" stroke-linecap="round" stroke-linejoin="round"/>
<path d="M2.66667 9.8335H13.3333" stroke="#713394" stroke-width="2" stroke-linecap="round" stroke-linejoin="round"/>
<path d="M15.2648 11.5246C14.7916 9.75117 14.5551 8.86448 14.718 8.09465C14.8613 7.41749 15.2144 6.80329 15.7268 6.34006C16.3092 5.81344 17.1923 5.57585 18.9583 5.10066C20.7243 4.62549 21.6073 4.3879 22.3739 4.55153C23.0483 4.69546 23.6599 5.05008 24.1212 5.56454C24.6456 6.14941 24.8823 7.03612 25.3555 8.8095L28.7352 21.4755C29.2084 23.2488 29.4449 24.1355 29.282 24.9053C29.1387 25.5825 28.7856 26.1967 28.2732 26.66C27.6908 27.1865 26.8077 27.4241 25.0417 27.8993C23.2757 28.3745 22.3927 28.6121 21.6261 28.4485C20.9517 28.3045 20.3401 27.9499 19.8788 27.4355C19.3544 26.8505 19.1177 25.9639 18.6445 24.1905L15.2648 11.5246Z" stroke="#713394" stroke-width="2" stroke-linecap="round" stroke-linejoin="round"/>
<path d="M23.7083 22.7604L23.7199 22.7573" stroke="#713394" stroke-width="2.66667" stroke-linecap="round" stroke-linejoin="round"/>
<path d="M16 11.1669L24.6668 8.5" stroke="#713394" stroke-width="2" stroke-linecap="round" stroke-linejoin="round"/>
</svg>
