<svg width="33" height="33" viewBox="0 0 33 33" fill="none" xmlns="http://www.w3.org/2000/svg">
<path d="M19.5212 22.1668C19.5212 19.6527 19.5212 18.3956 20.3023 17.6146C21.0834 16.8335 22.3404 16.8335 24.8546 16.8335C27.3687 16.8335 28.6258 16.8335 29.4068 17.6146C30.1879 18.3956 30.1879 19.6527 30.1879 22.1668C30.1879 24.681 30.1879 25.938 29.4068 26.7191C28.6258 27.5002 27.3687 27.5002 24.8546 27.5002C22.3404 27.5002 21.0834 27.5002 20.3023 26.7191C19.5212 25.938 19.5212 24.681 19.5212 22.1668Z" fill="#1A1A1A" stroke="#1A1A1A" stroke-width="2"/>
<path d="M19.5212 22.167V16.6505C19.5212 11.7612 22.8755 7.61478 27.5212 6.16699" stroke="#1A1A1A" stroke-width="2" stroke-linecap="round"/>
<path d="M3.5213 22.1668C3.5213 19.6527 3.5213 18.3956 4.30235 17.6146C5.08339 16.8335 6.34047 16.8335 8.85464 16.8335C11.3688 16.8335 12.6259 16.8335 13.4069 17.6146C14.188 18.3956 14.188 19.6527 14.188 22.1668C14.188 24.681 14.188 25.938 13.4069 26.7191C12.6259 27.5002 11.3688 27.5002 8.85464 27.5002C6.34047 27.5002 5.08339 27.5002 4.30235 26.7191C3.5213 25.938 3.5213 24.681 3.5213 22.1668Z" fill="#1A1A1A" stroke="#1A1A1A" stroke-width="2"/>
<path d="M3.5213 22.167V16.6505C3.5213 11.7612 6.87558 7.61478 11.5213 6.16699" stroke="#1A1A1A" stroke-width="2" stroke-linecap="round"/>
</svg>
